<svg width="98" height="64" viewBox="0 0 98 64" fill="none" xmlns="http://www.w3.org/2000/svg">
<path d="M40 28L34 22.74C33.45 22.2481 32.7379 21.9761 32 21.9761C31.2621 21.9761 30.55 22.2481 30 22.74L24 28C23.6824 28.2841 23.4289 28.6326 23.2565 29.0223C23.084 29.4119 22.9966 29.8339 23 30.26V39C23 39.7957 23.3161 40.5587 23.8787 41.1213C24.4413 41.6839 25.2044 42 26 42H38C38.7957 42 39.5587 41.6839 40.1213 41.1213C40.6839 40.5587 41 39.7957 41 39V30.25C41.002 29.8256 40.9139 29.4055 40.7415 29.0177C40.5691 28.6298 40.3164 28.283 40 28ZM34 40H30V35C30 34.7348 30.1054 34.4804 30.2929 34.2929C30.4804 34.1054 30.7348 34 31 34H33C33.2652 34 33.5196 34.1054 33.7071 34.2929C33.8946 34.4804 34 34.7348 34 35V40ZM39 39C39 39.2652 38.8946 39.5196 38.7071 39.7071C38.5196 39.8946 38.2652 40 38 40H36V35C36 34.2044 35.6839 33.4413 35.1213 32.8787C34.5587 32.3161 33.7957 32 33 32H31C30.2044 32 29.4413 32.3161 28.8787 32.8787C28.3161 33.4413 28 34.2044 28 35V40H26C25.7348 40 25.4804 39.8946 25.2929 39.7071C25.1054 39.5196 25 39.2652 25 39V30.25C25.0002 30.108 25.0306 29.9677 25.0892 29.8384C25.1478 29.7091 25.2333 29.5937 25.34 29.5L31.34 24.25C31.5225 24.0897 31.7571 24.0013 32 24.0013C32.2429 24.0013 32.4775 24.0897 32.66 24.25L38.66 29.5C38.7667 29.5937 38.8522 29.7091 38.9108 29.8384C38.9694 29.9677 38.9998 30.108 39 30.25V39Z" fill="#959596"/>
<path d="M74 28L68 22.74C67.45 22.2481 66.7379 21.9761 66 21.9761C65.2621 21.9761 64.55 22.2481 64 22.74L58 28C57.6824 28.2841 57.4289 28.6326 57.2565 29.0223C57.084 29.4119 56.9966 29.8339 57 30.26V39C57 39.7957 57.3161 40.5587 57.8787 41.1213C58.4413 41.6839 59.2044 42 60 42H72C72.7957 42 73.5587 41.6839 74.1213 41.1213C74.6839 40.5587 75 39.7957 75 39V30.25C75.002 29.8256 74.9139 29.4055 74.7415 29.0177C74.5691 28.6298 74.3164 28.283 74 28ZM68 40H64V35C64 34.7348 64.1054 34.4804 64.2929 34.2929C64.4804 34.1054 64.7348 34 65 34H67C67.2652 34 67.5196 34.1054 67.7071 34.2929C67.8946 34.4804 68 34.7348 68 35V40ZM73 39C73 39.2652 72.8946 39.5196 72.7071 39.7071C72.5196 39.8946 72.2652 40 72 40H70V35C70 34.2044 69.6839 33.4413 69.1213 32.8787C68.5587 32.3161 67.7957 32 67 32H65C64.2044 32 63.4413 32.3161 62.8787 32.8787C62.3161 33.4413 62 34.2044 62 35V40H60C59.7348 40 59.4804 39.8946 59.2929 39.7071C59.1054 39.5196 59 39.2652 59 39V30.25C59.0002 30.108 59.0306 29.9677 59.0892 29.8384C59.1478 29.7091 59.2333 29.5937 59.34 29.5L65.34 24.25C65.5225 24.0897 65.7571 24.0013 66 24.0013C66.2429 24.0013 66.4775 24.0897 66.66 24.25L72.66 29.5C72.7667 29.5937 72.8522 29.7091 72.9108 29.8384C72.9694 29.9677 72.9998 30.108 73 30.25V39Z" fill="white"/>
<rect x="0.5" y="0.5" width="97" height="63" rx="4.5" stroke="#9747FF" stroke-dasharray="10 5"/>
</svg>
