<svg width="25" height="24" viewBox="0 0 25 24" fill="none" xmlns="http://www.w3.org/2000/svg">
<path d="M20.5803 12.6599C20.421 12.4774 20.3332 12.2428 20.3332 11.9999C20.3332 11.757 20.421 11.5224 20.5803 11.3399L21.8519 9.89989C21.9921 9.74256 22.0791 9.5446 22.1005 9.3344C22.1219 9.12421 22.0766 8.91258 21.9712 8.72989L19.9842 5.2699C19.8798 5.08742 19.7208 4.94277 19.53 4.85658C19.3391 4.77039 19.126 4.74705 18.9212 4.7899L17.0535 5.1699C16.8159 5.21932 16.5684 5.17948 16.358 5.0579C16.1475 4.93631 15.9885 4.74138 15.911 4.5099L15.305 2.6799C15.2384 2.48127 15.1114 2.30876 14.942 2.18674C14.7727 2.06471 14.5695 1.99935 14.3612 1.9999H10.3874C10.1707 1.98851 9.95633 2.04882 9.77694 2.17161C9.59755 2.2944 9.46302 2.47291 9.3939 2.6799L8.83756 4.5099C8.76007 4.74138 8.60109 4.93631 8.39061 5.0579C8.18014 5.17948 7.93273 5.21932 7.69508 5.1699L5.77769 4.7899C5.58352 4.76228 5.38557 4.79312 5.20878 4.87853C5.03199 4.96395 4.88427 5.10012 4.78423 5.2699L2.7973 8.72989C2.68917 8.91054 2.64055 9.12098 2.65839 9.33112C2.67624 9.54126 2.75963 9.74034 2.89664 9.89989L4.15834 11.3399C4.31762 11.5224 4.40545 11.757 4.40545 11.9999C4.40545 12.2428 4.31762 12.4774 4.15834 12.6599L2.89664 14.0999C2.75963 14.2595 2.67624 14.4585 2.65839 14.6687C2.64055 14.8788 2.68917 15.0892 2.7973 15.2699L4.78423 18.7299C4.88864 18.9124 5.04761 19.057 5.23849 19.1432C5.42937 19.2294 5.6424 19.2527 5.84723 19.2099L7.71495 18.8299C7.9526 18.7805 8.20001 18.8203 8.41048 18.9419C8.62096 19.0635 8.77994 19.2584 8.85743 19.4899L9.46344 21.3199C9.53257 21.5269 9.6671 21.7054 9.84649 21.8282C10.0259 21.951 10.2403 22.0113 10.4569 21.9999H14.4308C14.639 22.0004 14.8422 21.9351 15.0116 21.8131C15.1809 21.691 15.3079 21.5185 15.3746 21.3199L15.9806 19.4899C16.0581 19.2584 16.217 19.0635 16.4275 18.9419C16.638 18.8203 16.8854 18.7805 17.123 18.8299L18.9908 19.2099C19.1956 19.2527 19.4086 19.2294 19.5995 19.1432C19.7904 19.057 19.9494 18.9124 20.0538 18.7299L22.0407 15.2699C22.1462 15.0872 22.1915 14.8756 22.17 14.6654C22.1486 14.4552 22.0616 14.2572 21.9215 14.0999L20.5803 12.6599ZM19.1 13.9999L19.8948 14.8999L18.6232 17.1199L17.4509 16.8799C16.7354 16.7327 15.9911 16.855 15.3592 17.2237C14.7274 17.5924 14.2521 18.1817 14.0234 18.8799L13.6459 19.9999H11.1027L10.745 18.8599C10.5164 18.1617 10.041 17.5724 9.4092 17.2037C8.77738 16.835 8.03307 16.7127 7.31756 16.8599L6.14527 17.0999L4.85377 14.8899L5.64854 13.9899C6.13728 13.4399 6.40748 12.7278 6.40748 11.9899C6.40748 11.252 6.13728 10.5399 5.64854 9.98989L4.85377 9.0899L6.1254 6.88989L7.29769 7.1299C8.0132 7.27712 8.75751 7.15478 9.38933 6.78609C10.0212 6.41741 10.4965 5.82805 10.7251 5.1299L11.1027 3.9999H13.6459L14.0234 5.13989C14.2521 5.83805 14.7274 6.42741 15.3592 6.79609C15.9911 7.16478 16.7354 7.28712 17.4509 7.13989L18.6232 6.8999L19.8948 9.11989L19.1 10.0199C18.6168 10.5687 18.3499 11.2766 18.3499 12.0099C18.3499 12.7432 18.6168 13.4511 19.1 13.9999ZM12.3743 7.9999C11.5883 7.9999 10.82 8.23449 10.1665 8.67402C9.51304 9.11354 9.0037 9.73826 8.70293 10.4692C8.40216 11.2001 8.32346 12.0043 8.47679 12.7803C8.63012 13.5562 9.0086 14.2689 9.56435 14.8283C10.1201 15.3877 10.8282 15.7687 11.599 15.923C12.3699 16.0774 13.1689 15.9982 13.895 15.6954C14.6211 15.3927 15.2418 14.88 15.6784 14.2222C16.1151 13.5644 16.3481 12.791 16.3481 11.9999C16.3481 10.939 15.9295 9.92161 15.1842 9.17147C14.439 8.42132 13.4282 7.9999 12.3743 7.9999ZM12.3743 13.9999C11.9813 13.9999 11.5972 13.8826 11.2704 13.6628C10.9437 13.4431 10.689 13.1307 10.5386 12.7653C10.3882 12.3998 10.3489 11.9977 10.4255 11.6097C10.5022 11.2218 10.6914 10.8654 10.9693 10.5857C11.2472 10.306 11.6012 10.1155 11.9867 10.0383C12.3721 9.96115 12.7716 10.0008 13.1347 10.1521C13.4977 10.3035 13.808 10.5599 14.0264 10.8888C14.2447 11.2177 14.3612 11.6043 14.3612 11.9999C14.3612 12.5303 14.1519 13.039 13.7793 13.4141C13.4066 13.7892 12.9013 13.9999 12.3743 13.9999Z" fill="#959596"/>
</svg>
