<svg width="54" height="54" viewBox="0 0 54 54" fill="none" xmlns="http://www.w3.org/2000/svg">
<path d="M3.19092 27.2646C4.83155 26.9419 7.02877 26.4803 9.33171 25.9121C11.6776 25.3333 14.1431 24.6414 16.2448 23.8697C18.3206 23.1075 20.1286 22.2377 21.0797 21.2687C22.0311 20.2994 22.8664 18.4698 23.5887 16.373C24.3202 14.2496 24.9648 11.7616 25.4986 9.39536C26.0239 7.06661 26.4441 4.84608 26.7354 3.19095C27.0582 4.83158 27.5197 7.0288 28.0879 9.33174C28.6667 11.6776 29.3586 14.1431 30.1303 16.2449C30.8925 18.3206 31.7623 20.1286 32.7313 21.0797C33.7007 22.0311 35.5302 22.8664 37.6271 23.5888C39.7504 24.3203 42.2384 24.9649 44.6047 25.4986C46.9334 26.024 49.154 26.4441 50.8091 26.7354C49.1685 27.0582 46.9712 27.5198 44.6683 28.088C42.3224 28.6668 39.8569 29.3586 37.7552 30.1304C35.6794 30.8926 33.8714 31.7623 32.9203 32.7313C31.9689 33.7007 31.1336 35.5302 30.4113 37.6271C29.6798 39.7504 29.0352 42.2385 28.5014 44.6047C27.9761 46.9335 27.5559 49.154 27.2646 50.8091C26.9418 49.1685 26.4803 46.9713 25.9121 44.6683C25.3333 42.3225 24.6414 39.857 23.8697 37.7552C23.1075 35.6794 22.2377 33.8714 21.2687 32.9204C20.2993 31.9689 18.4698 31.1337 16.3729 30.4113C14.2496 29.6798 11.7616 29.0352 9.39533 28.5014C7.06658 27.9761 4.84606 27.5559 3.19092 27.2646Z" fill="white" stroke="white"/>
</svg>
